<?xml version="1.0" standalone="no"?>
<!DOCTYPE svg PUBLIC "-//W3C//DTD SVG 20010904//EN"
 "http://www.w3.org/TR/2001/REC-SVG-20010904/DTD/svg10.dtd">
<svg version="1.0" xmlns="http://www.w3.org/2000/svg"
 width="245.000000pt" height="246.000000pt" viewBox="0 0 245.000000 246.000000"
 preserveAspectRatio="xMidYMid meet">

<g transform="translate(0.000000,246.000000) scale(0.100000,-0.100000)"
fill="#ffffffdd" stroke="none">
<path d="M1095 2454 c-392 -60 -690 -243 -892 -546 -99 -149 -183 -363 -194
-500 -6 -70 15 -43 28 36 83 489 496 897 988 976 105 17 325 15 428 -4 480
-90 859 -465 957 -946 12 -58 23 -107 26 -109 26 -26 1 125 -42 255 -81 242
-265 487 -468 624 -205 137 -422 208 -661 215 -77 2 -153 1 -170 -1z"/>
<path d="M1027 2335 c-421 -80 -764 -389 -880 -795 -30 -103 -42 -180 -29
-180 5 0 13 21 17 47 23 154 107 351 205 481 175 233 435 389 720 433 106 16
333 6 436 -20 112 -28 246 -87 346 -154 92 -61 243 -210 299 -297 83 -126 146
-278 170 -410 15 -82 34 -107 25 -32 -18 139 -99 339 -191 468 -161 225 -377
372 -655 445 -103 27 -353 35 -463 14z"/>
<path d="M1077 1880 c-14 -11 -33 -20 -42 -20 -9 0 -27 -11 -40 -25 -23 -22
-25 -32 -25 -109 0 -75 2 -87 20 -96 18 -10 20 -21 20 -110 0 -121 -1 -120
140 -120 117 0 140 8 140 50 0 27 3 30 31 30 64 0 69 9 69 128 0 120 -5 132
-57 132 -36 0 -54 23 -34 43 26 26 6 77 -31 77 -10 0 -26 4 -36 9 -28 14 -87
31 -109 31 -11 0 -32 -9 -46 -20z m102 -11 c20 -6 44 -15 53 -20 10 -5 26 -9
37 -9 10 0 22 -7 25 -16 9 -23 -13 -46 -35 -39 -17 6 -19 1 -19 -44 0 -28 -4
-51 -10 -51 -5 0 -10 12 -10 26 0 53 -13 62 -87 59 -45 -1 -79 -8 -100 -21
-29 -17 -33 -24 -33 -61 0 -24 -4 -43 -10 -43 -6 0 -10 29 -10 66 0 85 19 123
63 124 9 0 26 9 37 20 23 23 48 25 99 9z m101 -260 c0 -142 -1 -149 -20 -149
-11 0 -20 -4 -20 -10 0 -5 7 -10 16 -10 8 0 12 -4 9 -10 -4 -6 -53 -10 -115
-10 -62 0 -111 4 -115 10 -4 6 20 10 64 10 38 0 73 5 76 10 4 6 -23 10 -74 10
l-81 0 0 133 0 134 28 13 c15 7 54 13 87 14 l60 1 3 -35 c2 -19 8 -39 13 -44
5 -6 9 -48 9 -95 0 -107 17 -97 24 14 14 220 36 229 36 14z m80 111 c19 -12
27 -167 11 -199 -12 -22 -71 -31 -71 -11 0 6 11 10 25 10 l26 0 -3 93 c-3 87
-4 92 -25 95 -13 2 -23 8 -23 13 0 12 41 11 60 -1z m-22 -108 c3 -67 1 -72
-18 -72 -18 0 -20 6 -20 76 0 66 2 75 18 72 14 -3 18 -16 20 -76z"/>
<path d="M1060 1600 c0 -60 4 -100 10 -100 6 0 10 40 10 100 0 60 -4 100 -10
100 -6 0 -10 -40 -10 -100z"/>
<path d="M1140 1600 c0 -60 4 -100 10 -100 6 0 10 40 10 100 0 60 -4 100 -10
100 -6 0 -10 -40 -10 -100z"/>
<path d="M857 1140 c-31 -24 -34 -25 -40 -2 -3 9 -5 -68 -6 -171 -1 -147 2
-188 12 -185 9 4 13 46 15 158 3 169 11 194 61 188 l26 -3 5 -169 c4 -123 8
-171 18 -174 9 -3 12 31 12 146 0 136 2 152 21 176 22 28 50 34 68 13 6 -8 12
-76 13 -172 2 -116 6 -159 16 -163 9 -3 12 35 12 165 0 156 -2 171 -20 191
-26 27 -60 28 -88 2 l-22 -20 -20 20 c-25 25 -50 25 -83 0z"/>
<path d="M1459 1141 c-23 -19 -24 -24 -24 -169 0 -133 2 -152 19 -171 26 -28
88 -29 116 -1 24 24 27 80 6 80 -9 0 -16 -12 -18 -32 -3 -30 -7 -33 -38 -36
-46 -5 -60 17 -60 90 l0 58 65 0 65 0 0 79 c0 74 -2 81 -26 100 -33 26 -75 27
-105 2z m89 -23 c7 -7 12 -38 12 -71 l0 -58 -47 3 -48 3 0 58 c1 61 11 77 51
77 11 0 25 -5 32 -12z"/>
<path d="M1709 1141 c-23 -18 -24 -26 -27 -163 -3 -134 -2 -145 18 -171 27
-34 89 -38 120 -7 24 24 27 80 5 80 -8 0 -15 -9 -15 -19 0 -38 -12 -51 -44
-51 -46 0 -56 16 -56 87 l0 63 65 0 65 0 0 79 c0 74 -2 81 -26 100 -33 26 -75
27 -105 2z m89 -23 c7 -7 12 -38 12 -70 l0 -58 -50 0 -50 0 0 54 c0 36 5 60
16 70 18 19 55 21 72 4z"/>
<path d="M1982 1135 l-19 -24 -11 22 c-8 16 -11 -25 -11 -166 -1 -147 2 -188
12 -185 8 3 13 48 17 161 4 128 8 159 22 173 23 23 46 11 50 -27 5 -49 28 -50
28 -1 0 66 -51 94 -88 47z"/>
<path d="M422 968 l3 -183 55 2 c73 4 94 24 94 97 1 39 -4 59 -18 74 -17 19
-17 22 -2 37 24 24 21 96 -5 129 -18 22 -28 26 -75 26 l-54 0 2 -182z m108
133 c15 -29 12 -77 -6 -95 -8 -9 -29 -16 -45 -16 l-29 0 0 65 0 65 35 0 c24 0
37 -6 45 -19z m-2 -153 c16 -16 16 -100 0 -116 -7 -7 -27 -12 -45 -12 l-33 0
0 70 0 70 33 0 c18 0 38 -5 45 -12z"/>
<path d="M672 968 c2 -134 6 -182 16 -186 9 -3 12 38 12 182 0 160 -2 186 -15
186 -13 0 -15 -24 -13 -182z"/>
<path d="M1192 968 l3 -183 48 2 c26 1 59 9 72 17 22 15 25 24 25 78 0 42 -5
67 -16 79 -15 16 -15 20 0 41 25 35 21 94 -9 123 -19 20 -34 25 -75 25 l-50 0
2 -182z m108 133 c15 -29 12 -77 -6 -95 -8 -9 -29 -16 -45 -16 l-29 0 0 65 0
65 35 0 c24 0 37 -6 45 -19z m5 -164 c4 -13 5 -43 3 -68 l-3 -44 -42 -3 -43
-3 0 70 0 71 40 0 c33 0 41 -4 45 -23z"/>
<path d="M217 529 c10 -18 65 -81 122 -141 184 -193 390 -308 651 -364 117
-25 353 -25 470 0 247 53 461 167 630 335 87 86 166 188 156 199 -4 4 -17 -6
-29 -23 -170 -234 -407 -396 -687 -472 -125 -34 -377 -43 -515 -19 -294 50
-559 211 -750 455 -51 65 -78 82 -48 30z"/>
<path d="M339 543 c19 -35 147 -160 216 -211 120 -90 272 -160 425 -197 103
-25 317 -30 429 -11 263 46 511 185 672 377 71 85 35 66 -55 -29 -300 -315
-746 -424 -1160 -283 -171 58 -330 162 -455 297 -66 72 -92 92 -72 57z"/>
</g>
</svg>
